<?xml version="1.0" standalone="no"?>
<!DOCTYPE svg PUBLIC "-//W3C//DTD SVG 20010904//EN"
 "http://www.w3.org/TR/2001/REC-SVG-20010904/DTD/svg10.dtd">
<svg version="1.0" xmlns="http://www.w3.org/2000/svg"
 width="512.000000pt" height="512.000000pt" viewBox="0 0 512.000000 512.000000"
 preserveAspectRatio="xMidYMid meet">
<metadata>
Created by potrace 1.11, written by Peter Selinger 2001-2013
</metadata>
<g transform="translate(0.000000,512.000000) scale(0.100000,-0.100000)"
fill="#000000" stroke="none">
<path d="M2278 4744 c-2 -1 -25 -5 -51 -8 -379 -51 -810 -249 -1102 -506 -64
-56 -216 -211 -260 -264 -231 -280 -392 -616 -461 -961 -16 -82 -25 -140 -32
-200 -9 -91 -9 -424 1 -495 4 -30 10 -75 13 -100 3 -25 18 -99 34 -165 187
-787 803 -1413 1587 -1615 116 -30 286 -60 343 -60 l30 0 0 200 c0 153 -3 200
-12 201 -7 0 -22 2 -33 4 -11 2 -40 7 -65 10 -117 17 -308 73 -430 127 -440
193 -795 569 -963 1018 -81 217 -115 419 -111 658 2 145 5 180 20 266 102 582
465 1067 990 1322 104 50 309 125 379 138 17 2 41 7 55 10 33 7 153 26 163 26
4 0 7 90 7 200 l0 200 -50 -1 c-27 -1 -51 -3 -52 -5z"/>
<path d="M2740 4550 c0 -153 3 -200 13 -201 191 -12 548 -132 722 -242 205
-129 330 -236 469 -401 197 -234 349 -567 392 -863 3 -26 9 -57 11 -68 11 -48
9 -353 -3 -443 -98 -719 -604 -1305 -1294 -1500 -98 -28 -245 -58 -297 -61
-10 -1 -13 -48 -13 -202 l0 -202 73 7 c92 8 164 22 303 56 518 131 993 472
1290 930 186 286 297 593 342 947 9 76 9 454 -1 518 -5 28 -10 66 -13 85 -2
19 -7 46 -10 60 -8 35 -13 61 -19 92 -3 15 -21 79 -40 142 -103 341 -284 642
-540 902 -285 289 -630 488 -1015 586 -116 29 -285 58 -340 58 l-30 0 0 -200z"/>
<path d="M1410 3642 c0 -4 104 -182 137 -234 12 -21 23 -40 23 -42 0 -2 19
-37 43 -78 24 -40 55 -93 69 -118 14 -25 60 -104 102 -177 42 -73 76 -135 76
-138 0 -3 -67 -5 -150 -5 l-150 0 0 -150 0 -150 240 0 c238 0 240 0 253 -22 7
-13 28 -47 45 -76 18 -29 32 -56 32 -60 0 -4 -127 -7 -282 -7 l-283 0 0 -150
0 -150 320 0 320 0 5 -445 5 -445 345 0 345 0 5 445 5 445 323 0 322 0 0 150
0 150 -281 0 c-154 0 -282 2 -284 5 -2 3 16 39 39 80 l42 75 242 3 242 2 0
150 0 150 -150 0 c-82 0 -150 1 -150 3 0 5 39 79 50 97 5 8 73 125 151 260 78
135 162 281 188 324 25 44 49 87 52 96 6 14 -29 15 -335 14 -187 -1 -344 -2
-348 -3 -5 -1 -47 -71 -168 -282 -195 -343 -286 -498 -290 -499 -3 0 -10 10
-16 23 -6 12 -35 63 -64 112 -29 50 -64 110 -78 135 -13 25 -28 50 -32 55 -4
6 -19 30 -32 55 -23 40 -46 80 -121 210 -11 19 -31 55 -45 80 -14 25 -35 61
-47 80 l-22 35 -347 0 c-190 0 -346 -1 -346 -3z"/>
</g>
</svg>
